# Blender v2.91.0 OBJ File: ''
# www.blender.org
mtllib SampleLevel.mtl
o Cube.001
v -3.500000 -1.026347 -4.500000
v -3.500000 5.026347 -4.500000
v -3.500000 -1.026347 -5.500000
v -3.500000 5.026347 -5.500000
v -2.500000 -1.026347 -4.500000
v -2.500000 5.026347 -4.500000
v -2.500000 -1.026347 -5.500000
v -2.500000 5.026347 -5.500000
v -1.400000 -1.026347 -4.500000
v -1.400000 5.026347 -4.500000
v -1.400000 -1.026347 -5.500000
v -1.400000 5.026347 -5.500000
v -0.400000 -1.026347 -4.500000
v -0.400000 5.026347 -4.500000
v -0.400000 -1.026347 -5.500000
v -0.400000 5.026347 -5.500000
v 0.700000 -1.026347 -4.500000
v 0.700000 5.026347 -4.500000
v 0.700000 -1.026347 -5.500000
v 0.700000 5.026347 -5.500000
v 1.700000 -1.026347 -4.500000
v 1.700000 5.026347 -4.500000
v 1.700000 -1.026347 -5.500000
v 1.700000 5.026347 -5.500000
v 2.800000 -1.026347 -4.500000
v 2.800000 5.026347 -4.500000
v 2.800000 -1.026347 -5.500000
v 2.800000 5.026347 -5.500000
v 3.800000 -1.026347 -4.500000
v 3.800000 5.026347 -4.500000
v 3.800000 -1.026347 -5.500000
v 3.800000 5.026347 -5.500000
vt 0.375000 0.000000
vt 0.625000 0.000000
vt 0.625000 0.250000
vt 0.375000 0.250000
vt 0.625000 0.500000
vt 0.375000 0.500000
vt 0.625000 0.750000
vt 0.375000 0.750000
vt 0.625000 1.000000
vt 0.375000 1.000000
vt 0.125000 0.500000
vt 0.125000 0.750000
vt 0.875000 0.500000
vt 0.875000 0.750000
vt 0.375000 0.000000
vt 0.625000 0.000000
vt 0.625000 0.250000
vt 0.375000 0.250000
vt 0.625000 0.500000
vt 0.375000 0.500000
vt 0.625000 0.750000
vt 0.375000 0.750000
vt 0.625000 1.000000
vt 0.375000 1.000000
vt 0.125000 0.500000
vt 0.125000 0.750000
vt 0.875000 0.500000
vt 0.875000 0.750000
vt 0.375000 0.000000
vt 0.625000 0.000000
vt 0.625000 0.250000
vt 0.375000 0.250000
vt 0.625000 0.500000
vt 0.375000 0.500000
vt 0.625000 0.750000
vt 0.375000 0.750000
vt 0.625000 1.000000
vt 0.375000 1.000000
vt 0.125000 0.500000
vt 0.125000 0.750000
vt 0.875000 0.500000
vt 0.875000 0.750000
vt 0.375000 0.000000
vt 0.625000 0.000000
vt 0.625000 0.250000
vt 0.375000 0.250000
vt 0.625000 0.500000
vt 0.375000 0.500000
vt 0.625000 0.750000
vt 0.375000 0.750000
vt 0.625000 1.000000
vt 0.375000 1.000000
vt 0.125000 0.500000
vt 0.125000 0.750000
vt 0.875000 0.500000
vt 0.875000 0.750000
vn -1.0000 0.0000 0.0000
vn 0.0000 0.0000 -1.0000
vn 1.0000 0.0000 0.0000
vn 0.0000 0.0000 1.0000
vn 0.0000 -1.0000 0.0000
vn 0.0000 1.0000 0.0000
usemtl None
s off
f 1/1/1 2/2/1 4/3/1 3/4/1
f 3/4/2 4/3/2 8/5/2 7/6/2
f 7/6/3 8/5/3 6/7/3 5/8/3
f 5/8/4 6/7/4 2/9/4 1/10/4
f 3/11/5 7/6/5 5/8/5 1/12/5
f 8/5/6 4/13/6 2/14/6 6/7/6
f 9/15/1 10/16/1 12/17/1 11/18/1
f 11/18/2 12/17/2 16/19/2 15/20/2
f 15/20/3 16/19/3 14/21/3 13/22/3
f 13/22/4 14/21/4 10/23/4 9/24/4
f 11/25/5 15/20/5 13/22/5 9/26/5
f 16/19/6 12/27/6 10/28/6 14/21/6
f 17/29/1 18/30/1 20/31/1 19/32/1
f 19/32/2 20/31/2 24/33/2 23/34/2
f 23/34/3 24/33/3 22/35/3 21/36/3
f 21/36/4 22/35/4 18/37/4 17/38/4
f 19/39/5 23/34/5 21/36/5 17/40/5
f 24/33/6 20/41/6 18/42/6 22/35/6
f 25/43/1 26/44/1 28/45/1 27/46/1
f 27/46/2 28/45/2 32/47/2 31/48/2
f 31/48/3 32/47/3 30/49/3 29/50/3
f 29/50/4 30/49/4 26/51/4 25/52/4
f 27/53/5 31/48/5 29/50/5 25/54/5
f 32/47/6 28/55/6 26/56/6 30/49/6
o Cube.002
v -3.500000 -1.026347 -2.500000
v -3.500000 5.026347 -2.500000
v -3.500000 -1.026347 -3.500000
v -3.500000 5.026347 -3.500000
v -2.500000 -1.026347 -2.500000
v -2.500000 5.026347 -2.500000
v -2.500000 -1.026347 -3.500000
v -2.500000 5.026347 -3.500000
v -1.400000 -1.026347 -2.500000
v -1.400000 5.026347 -2.500000
v -1.400000 -1.026347 -3.500000
v -1.400000 5.026347 -3.500000
v -0.400000 -1.026347 -2.500000
v -0.400000 5.026347 -2.500000
v -0.400000 -1.026347 -3.500000
v -0.400000 5.026347 -3.500000
v 0.700000 -1.026347 -2.500000
v 0.700000 5.026347 -2.500000
v 0.700000 -1.026347 -3.500000
v 0.700000 5.026347 -3.500000
v 1.700000 -1.026347 -2.500000
v 1.700000 5.026347 -2.500000
v 1.700000 -1.026347 -3.500000
v 1.700000 5.026347 -3.500000
v 2.800000 -1.026347 -2.500000
v 2.800000 5.026347 -2.500000
v 2.800000 -1.026347 -3.500000
v 2.800000 5.026347 -3.500000
v 3.800000 -1.026347 -2.500000
v 3.800000 5.026347 -2.500000
v 3.800000 -1.026347 -3.500000
v 3.800000 5.026347 -3.500000
vt 0.375000 0.000000
vt 0.625000 0.000000
vt 0.625000 0.250000
vt 0.375000 0.250000
vt 0.625000 0.500000
vt 0.375000 0.500000
vt 0.625000 0.750000
vt 0.375000 0.750000
vt 0.625000 1.000000
vt 0.375000 1.000000
vt 0.125000 0.500000
vt 0.125000 0.750000
vt 0.875000 0.500000
vt 0.875000 0.750000
vt 0.375000 0.000000
vt 0.625000 0.000000
vt 0.625000 0.250000
vt 0.375000 0.250000
vt 0.625000 0.500000
vt 0.375000 0.500000
vt 0.625000 0.750000
vt 0.375000 0.750000
vt 0.625000 1.000000
vt 0.375000 1.000000
vt 0.125000 0.500000
vt 0.125000 0.750000
vt 0.875000 0.500000
vt 0.875000 0.750000
vt 0.375000 0.000000
vt 0.625000 0.000000
vt 0.625000 0.250000
vt 0.375000 0.250000
vt 0.625000 0.500000
vt 0.375000 0.500000
vt 0.625000 0.750000
vt 0.375000 0.750000
vt 0.625000 1.000000
vt 0.375000 1.000000
vt 0.125000 0.500000
vt 0.125000 0.750000
vt 0.875000 0.500000
vt 0.875000 0.750000
vt 0.375000 0.000000
vt 0.625000 0.000000
vt 0.625000 0.250000
vt 0.375000 0.250000
vt 0.625000 0.500000
vt 0.375000 0.500000
vt 0.625000 0.750000
vt 0.375000 0.750000
vt 0.625000 1.000000
vt 0.375000 1.000000
vt 0.125000 0.500000
vt 0.125000 0.750000
vt 0.875000 0.500000
vt 0.875000 0.750000
vn -1.0000 0.0000 0.0000
vn 0.0000 0.0000 -1.0000
vn 1.0000 0.0000 0.0000
vn 0.0000 0.0000 1.0000
vn 0.0000 -1.0000 0.0000
vn 0.0000 1.0000 0.0000
usemtl None
s off
f 33/57/7 34/58/7 36/59/7 35/60/7
f 35/60/8 36/59/8 40/61/8 39/62/8
f 39/62/9 40/61/9 38/63/9 37/64/9
f 37/64/10 38/63/10 34/65/10 33/66/10
f 35/67/11 39/62/11 37/64/11 33/68/11
f 40/61/12 36/69/12 34/70/12 38/63/12
f 41/71/7 42/72/7 44/73/7 43/74/7
f 43/74/8 44/73/8 48/75/8 47/76/8
f 47/76/9 48/75/9 46/77/9 45/78/9
f 45/78/10 46/77/10 42/79/10 41/80/10
f 43/81/11 47/76/11 45/78/11 41/82/11
f 48/75/12 44/83/12 42/84/12 46/77/12
f 49/85/7 50/86/7 52/87/7 51/88/7
f 51/88/8 52/87/8 56/89/8 55/90/8
f 55/90/9 56/89/9 54/91/9 53/92/9
f 53/92/10 54/91/10 50/93/10 49/94/10
f 51/95/11 55/90/11 53/92/11 49/96/11
f 56/89/12 52/97/12 50/98/12 54/91/12
f 57/99/7 58/100/7 60/101/7 59/102/7
f 59/102/8 60/101/8 64/103/8 63/104/8
f 63/104/9 64/103/9 62/105/9 61/106/9
f 61/106/10 62/105/10 58/107/10 57/108/10
f 59/109/11 63/104/11 61/106/11 57/110/11
f 64/103/12 60/111/12 58/112/12 62/105/12
o Cube.003
v -3.500000 -1.026347 -0.500000
v -3.500000 5.026347 -0.500000
v -3.500000 -1.026347 -1.500000
v -3.500000 5.026347 -1.500000
v -2.500000 -1.026347 -0.500000
v -2.500000 5.026347 -0.500000
v -2.500000 -1.026347 -1.500000
v -2.500000 5.026347 -1.500000
v -1.400000 -1.026347 -0.500000
v -1.400000 5.026347 -0.500000
v -1.400000 -1.026347 -1.500000
v -1.400000 5.026347 -1.500000
v -0.400000 -1.026347 -0.500000
v -0.400000 5.026347 -0.500000
v -0.400000 -1.026347 -1.500000
v -0.400000 5.026347 -1.500000
v 0.700000 -1.026347 -0.500000
v 0.700000 5.026347 -0.500000
v 0.700000 -1.026347 -1.500000
v 0.700000 5.026347 -1.500000
v 1.700000 -1.026347 -0.500000
v 1.700000 5.026347 -0.500000
v 1.700000 -1.026347 -1.500000
v 1.700000 5.026347 -1.500000
v 2.800000 -1.026347 -0.500000
v 2.800000 5.026347 -0.500000
v 2.800000 -1.026347 -1.500000
v 2.800000 5.026347 -1.500000
v 3.800000 -1.026347 -0.500000
v 3.800000 5.026347 -0.500000
v 3.800000 -1.026347 -1.500000
v 3.800000 5.026347 -1.500000
vt 0.375000 0.000000
vt 0.625000 0.000000
vt 0.625000 0.250000
vt 0.375000 0.250000
vt 0.625000 0.500000
vt 0.375000 0.500000
vt 0.625000 0.750000
vt 0.375000 0.750000
vt 0.625000 1.000000
vt 0.375000 1.000000
vt 0.125000 0.500000
vt 0.125000 0.750000
vt 0.875000 0.500000
vt 0.875000 0.750000
vt 0.375000 0.000000
vt 0.625000 0.000000
vt 0.625000 0.250000
vt 0.375000 0.250000
vt 0.625000 0.500000
vt 0.375000 0.500000
vt 0.625000 0.750000
vt 0.375000 0.750000
vt 0.625000 1.000000
vt 0.375000 1.000000
vt 0.125000 0.500000
vt 0.125000 0.750000
vt 0.875000 0.500000
vt 0.875000 0.750000
vt 0.375000 0.000000
vt 0.625000 0.000000
vt 0.625000 0.250000
vt 0.375000 0.250000
vt 0.625000 0.500000
vt 0.375000 0.500000
vt 0.625000 0.750000
vt 0.375000 0.750000
vt 0.625000 1.000000
vt 0.375000 1.000000
vt 0.125000 0.500000
vt 0.125000 0.750000
vt 0.875000 0.500000
vt 0.875000 0.750000
vt 0.375000 0.000000
vt 0.625000 0.000000
vt 0.625000 0.250000
vt 0.375000 0.250000
vt 0.625000 0.500000
vt 0.375000 0.500000
vt 0.625000 0.750000
vt 0.375000 0.750000
vt 0.625000 1.000000
vt 0.375000 1.000000
vt 0.125000 0.500000
vt 0.125000 0.750000
vt 0.875000 0.500000
vt 0.875000 0.750000
vn -1.0000 0.0000 0.0000
vn 0.0000 0.0000 -1.0000
vn 1.0000 0.0000 0.0000
vn 0.0000 0.0000 1.0000
vn 0.0000 -1.0000 0.0000
vn 0.0000 1.0000 0.0000
usemtl None
s off
f 65/113/13 66/114/13 68/115/13 67/116/13
f 67/116/14 68/115/14 72/117/14 71/118/14
f 71/118/15 72/117/15 70/119/15 69/120/15
f 69/120/16 70/119/16 66/121/16 65/122/16
f 67/123/17 71/118/17 69/120/17 65/124/17
f 72/117/18 68/125/18 66/126/18 70/119/18
f 73/127/13 74/128/13 76/129/13 75/130/13
f 75/130/14 76/129/14 80/131/14 79/132/14
f 79/132/15 80/131/15 78/133/15 77/134/15
f 77/134/16 78/133/16 74/135/16 73/136/16
f 75/137/17 79/132/17 77/134/17 73/138/17
f 80/131/18 76/139/18 74/140/18 78/133/18
f 81/141/13 82/142/13 84/143/13 83/144/13
f 83/144/14 84/143/14 88/145/14 87/146/14
f 87/146/15 88/145/15 86/147/15 85/148/15
f 85/148/16 86/147/16 82/149/16 81/150/16
f 83/151/17 87/146/17 85/148/17 81/152/17
f 88/145/18 84/153/18 82/154/18 86/147/18
f 89/155/13 90/156/13 92/157/13 91/158/13
f 91/158/14 92/157/14 96/159/14 95/160/14
f 95/160/15 96/159/15 94/161/15 93/162/15
f 93/162/16 94/161/16 90/163/16 89/164/16
f 91/165/17 95/160/17 93/162/17 89/166/17
f 96/159/18 92/167/18 90/168/18 94/161/18
o Cube.006_Cube.007
v -3.500000 -1.026347 1.500000
v -3.500000 5.026347 1.500000
v -3.500000 -1.026347 0.500000
v -3.500000 5.026347 0.500000
v -2.500000 -1.026347 1.500000
v -2.500000 5.026347 1.500000
v -2.500000 -1.026347 0.500000
v -2.500000 5.026347 0.500000
v -1.400000 -1.026347 1.500000
v -1.400000 5.026347 1.500000
v -1.400000 -1.026347 0.500000
v -1.400000 5.026347 0.500000
v -0.400000 -1.026347 1.500000
v -0.400000 5.026347 1.500000
v -0.400000 -1.026347 0.500000
v -0.400000 5.026347 0.500000
v 0.700000 -1.026347 1.500000
v 0.700000 5.026347 1.500000
v 0.700000 -1.026347 0.500000
v 0.700000 5.026347 0.500000
v 1.700000 -1.026347 1.500000
v 1.700000 5.026347 1.500000
v 1.700000 -1.026347 0.500000
v 1.700000 5.026347 0.500000
v 2.800000 -1.026347 1.500000
v 2.800000 5.026347 1.500000
v 2.800000 -1.026347 0.500000
v 2.800000 5.026347 0.500000
v 3.800000 -1.026347 1.500000
v 3.800000 5.026347 1.500000
v 3.800000 -1.026347 0.500000
v 3.800000 5.026347 0.500000
vt 0.375000 0.000000
vt 0.625000 0.000000
vt 0.625000 0.250000
vt 0.375000 0.250000
vt 0.625000 0.500000
vt 0.375000 0.500000
vt 0.625000 0.750000
vt 0.375000 0.750000
vt 0.625000 1.000000
vt 0.375000 1.000000
vt 0.125000 0.500000
vt 0.125000 0.750000
vt 0.875000 0.500000
vt 0.875000 0.750000
vt 0.375000 0.000000
vt 0.625000 0.000000
vt 0.625000 0.250000
vt 0.375000 0.250000
vt 0.625000 0.500000
vt 0.375000 0.500000
vt 0.625000 0.750000
vt 0.375000 0.750000
vt 0.625000 1.000000
vt 0.375000 1.000000
vt 0.125000 0.500000
vt 0.125000 0.750000
vt 0.875000 0.500000
vt 0.875000 0.750000
vt 0.375000 0.000000
vt 0.625000 0.000000
vt 0.625000 0.250000
vt 0.375000 0.250000
vt 0.625000 0.500000
vt 0.375000 0.500000
vt 0.625000 0.750000
vt 0.375000 0.750000
vt 0.625000 1.000000
vt 0.375000 1.000000
vt 0.125000 0.500000
vt 0.125000 0.750000
vt 0.875000 0.500000
vt 0.875000 0.750000
vt 0.375000 0.000000
vt 0.625000 0.000000
vt 0.625000 0.250000
vt 0.375000 0.250000
vt 0.625000 0.500000
vt 0.375000 0.500000
vt 0.625000 0.750000
vt 0.375000 0.750000
vt 0.625000 1.000000
vt 0.375000 1.000000
vt 0.125000 0.500000
vt 0.125000 0.750000
vt 0.875000 0.500000
vt 0.875000 0.750000
vn -1.0000 0.0000 0.0000
vn 0.0000 0.0000 -1.0000
vn 1.0000 0.0000 0.0000
vn 0.0000 0.0000 1.0000
vn 0.0000 -1.0000 0.0000
vn 0.0000 1.0000 0.0000
usemtl None
s off
f 97/169/19 98/170/19 100/171/19 99/172/19
f 99/172/20 100/171/20 104/173/20 103/174/20
f 103/174/21 104/173/21 102/175/21 101/176/21
f 101/176/22 102/175/22 98/177/22 97/178/22
f 99/179/23 103/174/23 101/176/23 97/180/23
f 104/173/24 100/181/24 98/182/24 102/175/24
f 105/183/19 106/184/19 108/185/19 107/186/19
f 107/186/20 108/185/20 112/187/20 111/188/20
f 111/188/21 112/187/21 110/189/21 109/190/21
f 109/190/22 110/189/22 106/191/22 105/192/22
f 107/193/23 111/188/23 109/190/23 105/194/23
f 112/187/24 108/195/24 106/196/24 110/189/24
f 113/197/19 114/198/19 116/199/19 115/200/19
f 115/200/20 116/199/20 120/201/20 119/202/20
f 119/202/21 120/201/21 118/203/21 117/204/21
f 117/204/22 118/203/22 114/205/22 113/206/22
f 115/207/23 119/202/23 117/204/23 113/208/23
f 120/201/24 116/209/24 114/210/24 118/203/24
f 121/211/19 122/212/19 124/213/19 123/214/19
f 123/214/20 124/213/20 128/215/20 127/216/20
f 127/216/21 128/215/21 126/217/21 125/218/21
f 125/218/22 126/217/22 122/219/22 121/220/22
f 123/221/23 127/216/23 125/218/23 121/222/23
f 128/215/24 124/223/24 122/224/24 126/217/24
o Cube.005_Cube.006
v -3.500000 -1.026347 3.500000
v -3.500000 5.026347 3.500000
v -3.500000 -1.026347 2.500000
v -3.500000 5.026347 2.500000
v -2.500000 -1.026347 3.500000
v -2.500000 5.026347 3.500000
v -2.500000 -1.026347 2.500000
v -2.500000 5.026347 2.500000
v -1.400000 -1.026347 3.500000
v -1.400000 5.026347 3.500000
v -1.400000 -1.026347 2.500000
v -1.400000 5.026347 2.500000
v -0.400000 -1.026347 3.500000
v -0.400000 5.026347 3.500000
v -0.400000 -1.026347 2.500000
v -0.400000 5.026347 2.500000
v 0.700000 -1.026347 3.500000
v 0.700000 5.026347 3.500000
v 0.700000 -1.026347 2.500000
v 0.700000 5.026347 2.500000
v 1.700000 -1.026347 3.500000
v 1.700000 5.026347 3.500000
v 1.700000 -1.026347 2.500000
v 1.700000 5.026347 2.500000
v 2.800000 -1.026347 3.500000
v 2.800000 5.026347 3.500000
v 2.800000 -1.026347 2.500000
v 2.800000 5.026347 2.500000
v 3.800000 -1.026347 3.500000
v 3.800000 5.026347 3.500000
v 3.800000 -1.026347 2.500000
v 3.800000 5.026347 2.500000
vt 0.375000 0.000000
vt 0.625000 0.000000
vt 0.625000 0.250000
vt 0.375000 0.250000
vt 0.625000 0.500000
vt 0.375000 0.500000
vt 0.625000 0.750000
vt 0.375000 0.750000
vt 0.625000 1.000000
vt 0.375000 1.000000
vt 0.125000 0.500000
vt 0.125000 0.750000
vt 0.875000 0.500000
vt 0.875000 0.750000
vt 0.375000 0.000000
vt 0.625000 0.000000
vt 0.625000 0.250000
vt 0.375000 0.250000
vt 0.625000 0.500000
vt 0.375000 0.500000
vt 0.625000 0.750000
vt 0.375000 0.750000
vt 0.625000 1.000000
vt 0.375000 1.000000
vt 0.125000 0.500000
vt 0.125000 0.750000
vt 0.875000 0.500000
vt 0.875000 0.750000
vt 0.375000 0.000000
vt 0.625000 0.000000
vt 0.625000 0.250000
vt 0.375000 0.250000
vt 0.625000 0.500000
vt 0.375000 0.500000
vt 0.625000 0.750000
vt 0.375000 0.750000
vt 0.625000 1.000000
vt 0.375000 1.000000
vt 0.125000 0.500000
vt 0.125000 0.750000
vt 0.875000 0.500000
vt 0.875000 0.750000
vt 0.375000 0.000000
vt 0.625000 0.000000
vt 0.625000 0.250000
vt 0.375000 0.250000
vt 0.625000 0.500000
vt 0.375000 0.500000
vt 0.625000 0.750000
vt 0.375000 0.750000
vt 0.625000 1.000000
vt 0.375000 1.000000
vt 0.125000 0.500000
vt 0.125000 0.750000
vt 0.875000 0.500000
vt 0.875000 0.750000
vn -1.0000 0.0000 0.0000
vn 0.0000 0.0000 -1.0000
vn 1.0000 0.0000 0.0000
vn 0.0000 0.0000 1.0000
vn 0.0000 -1.0000 0.0000
vn 0.0000 1.0000 0.0000
usemtl None
s off
f 129/225/25 130/226/25 132/227/25 131/228/25
f 131/228/26 132/227/26 136/229/26 135/230/26
f 135/230/27 136/229/27 134/231/27 133/232/27
f 133/232/28 134/231/28 130/233/28 129/234/28
f 131/235/29 135/230/29 133/232/29 129/236/29
f 136/229/30 132/237/30 130/238/30 134/231/30
f 137/239/25 138/240/25 140/241/25 139/242/25
f 139/242/26 140/241/26 144/243/26 143/244/26
f 143/244/27 144/243/27 142/245/27 141/246/27
f 141/246/28 142/245/28 138/247/28 137/248/28
f 139/249/29 143/244/29 141/246/29 137/250/29
f 144/243/30 140/251/30 138/252/30 142/245/30
f 145/253/25 146/254/25 148/255/25 147/256/25
f 147/256/26 148/255/26 152/257/26 151/258/26
f 151/258/27 152/257/27 150/259/27 149/260/27
f 149/260/28 150/259/28 146/261/28 145/262/28
f 147/263/29 151/258/29 149/260/29 145/264/29
f 152/257/30 148/265/30 146/266/30 150/259/30
f 153/267/25 154/268/25 156/269/25 155/270/25
f 155/270/26 156/269/26 160/271/26 159/272/26
f 159/272/27 160/271/27 158/273/27 157/274/27
f 157/274/28 158/273/28 154/275/28 153/276/28
f 155/277/29 159/272/29 157/274/29 153/278/29
f 160/271/30 156/279/30 154/280/30 158/273/30
o Cube.004_Cube.005
v -3.500000 -1.026347 5.500000
v -3.500000 5.026347 5.500000
v -3.500000 -1.026347 4.500000
v -3.500000 5.026347 4.500000
v -2.500000 -1.026347 5.500000
v -2.500000 5.026347 5.500000
v -2.500000 -1.026347 4.500000
v -2.500000 5.026347 4.500000
v -1.400000 -1.026347 5.500000
v -1.400000 5.026347 5.500000
v -1.400000 -1.026347 4.500000
v -1.400000 5.026347 4.500000
v -0.400000 -1.026347 5.500000
v -0.400000 5.026347 5.500000
v -0.400000 -1.026347 4.500000
v -0.400000 5.026347 4.500000
v 0.700000 -1.026347 5.500000
v 0.700000 5.026347 5.500000
v 0.700000 -1.026347 4.500000
v 0.700000 5.026347 4.500000
v 1.700000 -1.026347 5.500000
v 1.700000 5.026347 5.500000
v 1.700000 -1.026347 4.500000
v 1.700000 5.026347 4.500000
v 2.800000 -1.026347 5.500000
v 2.800000 5.026347 5.500000
v 2.800000 -1.026347 4.500000
v 2.800000 5.026347 4.500000
v 3.800000 -1.026347 5.500000
v 3.800000 5.026347 5.500000
v 3.800000 -1.026347 4.500000
v 3.800000 5.026347 4.500000
vt 0.375000 0.000000
vt 0.625000 0.000000
vt 0.625000 0.250000
vt 0.375000 0.250000
vt 0.625000 0.500000
vt 0.375000 0.500000
vt 0.625000 0.750000
vt 0.375000 0.750000
vt 0.625000 1.000000
vt 0.375000 1.000000
vt 0.125000 0.500000
vt 0.125000 0.750000
vt 0.875000 0.500000
vt 0.875000 0.750000
vt 0.375000 0.000000
vt 0.625000 0.000000
vt 0.625000 0.250000
vt 0.375000 0.250000
vt 0.625000 0.500000
vt 0.375000 0.500000
vt 0.625000 0.750000
vt 0.375000 0.750000
vt 0.625000 1.000000
vt 0.375000 1.000000
vt 0.125000 0.500000
vt 0.125000 0.750000
vt 0.875000 0.500000
vt 0.875000 0.750000
vt 0.375000 0.000000
vt 0.625000 0.000000
vt 0.625000 0.250000
vt 0.375000 0.250000
vt 0.625000 0.500000
vt 0.375000 0.500000
vt 0.625000 0.750000
vt 0.375000 0.750000
vt 0.625000 1.000000
vt 0.375000 1.000000
vt 0.125000 0.500000
vt 0.125000 0.750000
vt 0.875000 0.500000
vt 0.875000 0.750000
vt 0.375000 0.000000
vt 0.625000 0.000000
vt 0.625000 0.250000
vt 0.375000 0.250000
vt 0.625000 0.500000
vt 0.375000 0.500000
vt 0.625000 0.750000
vt 0.375000 0.750000
vt 0.625000 1.000000
vt 0.375000 1.000000
vt 0.125000 0.500000
vt 0.125000 0.750000
vt 0.875000 0.500000
vt 0.875000 0.750000
vn -1.0000 0.0000 0.0000
vn 0.0000 0.0000 -1.0000
vn 1.0000 0.0000 0.0000
vn 0.0000 0.0000 1.0000
vn 0.0000 -1.0000 0.0000
vn 0.0000 1.0000 0.0000
usemtl None
s off
f 161/281/31 162/282/31 164/283/31 163/284/31
f 163/284/32 164/283/32 168/285/32 167/286/32
f 167/286/33 168/285/33 166/287/33 165/288/33
f 165/288/34 166/287/34 162/289/34 161/290/34
f 163/291/35 167/286/35 165/288/35 161/292/35
f 168/285/36 164/293/36 162/294/36 166/287/36
f 169/295/31 170/296/31 172/297/31 171/298/31
f 171/298/32 172/297/32 176/299/32 175/300/32
f 175/300/33 176/299/33 174/301/33 173/302/33
f 173/302/34 174/301/34 170/303/34 169/304/34
f 171/305/35 175/300/35 173/302/35 169/306/35
f 176/299/36 172/307/36 170/308/36 174/301/36
f 177/309/31 178/310/31 180/311/31 179/312/31
f 179/312/32 180/311/32 184/313/32 183/314/32
f 183/314/33 184/313/33 182/315/33 181/316/33
f 181/316/34 182/315/34 178/317/34 177/318/34
f 179/319/35 183/314/35 181/316/35 177/320/35
f 184/313/36 180/321/36 178/322/36 182/315/36
f 185/323/31 186/324/31 188/325/31 187/326/31
f 187/326/32 188/325/32 192/327/32 191/328/32
f 191/328/33 192/327/33 190/329/33 189/330/33
f 189/330/34 190/329/34 186/331/34 185/332/34
f 187/333/35 191/328/35 189/330/35 185/334/35
f 192/327/36 188/335/36 186/336/36 190/329/36
o Plane
v -49.880589 0.000000 49.880589
v 49.880589 0.000000 49.880589
v -49.880589 0.000000 -49.880589
v 49.880589 0.000000 -49.880589
vt 0.000000 0.000000
vt 1.000000 0.000000
vt 1.000000 1.000000
vt 0.000000 1.000000
vn 0.0000 1.0000 0.0000
usemtl None
s off
f 193/337/37 194/338/37 196/339/37 195/340/37
